<?xml version="1.0" encoding="UTF-8" standalone="no"?>
<!-- Created with Inkscape (http://www.inkscape.org/) -->

<svg
   xmlns:dc="http://purl.org/dc/elements/1.1/"
   xmlns:cc="http://creativecommons.org/ns#"
   xmlns:rdf="http://www.w3.org/1999/02/22-rdf-syntax-ns#"
   xmlns:svg="http://www.w3.org/2000/svg"
   xmlns="http://www.w3.org/2000/svg"
   version="1.1"
   width="71.979301"
   height="41.651821"
   id="svg2">
  <defs
     id="defs4" />
  <metadata
     id="metadata7">
    <rdf:RDF>
      <cc:Work
         rdf:about="">
        <dc:format>image/svg+xml</dc:format>
        <dc:type
           rdf:resource="http://purl.org/dc/dcmitype/StillImage" />
        <dc:title></dc:title>
      </cc:Work>
    </rdf:RDF>
  </metadata>
  <g
     transform="translate(-31.322848,-969.54908)"
     id="layer1">
    <path
       d="m 31.322848,1011.2009 71.979302,0 0,-41.65182 -71.979302,0 0,41.65182 z m 3.682409,-2.156 0,-0.8799 c 0,-0.3037 0.464238,-0.5414 1.033977,-0.5414 l 3.700549,0 c 0.56974,0 1.033977,0.2377 1.033977,0.5414 l 0,0.8799 c 0,0.3036 -0.464237,0.5511 -1.033977,0.5511 l -3.700549,0 c -0.569739,0 -1.033977,-0.2475 -1.033977,-0.5511 z m 0,-5.2114 0,-0.8701 c 0,-0.3037 0.464238,-0.5511 1.033977,-0.5511 l 3.700549,0 c 0.56974,0 1.033977,0.2474 1.033977,0.5511 l 0,0.8701 c 0,0.3037 -0.464237,0.5512 -1.033977,0.5512 l -3.700549,0 c -0.569739,0 -1.033977,-0.2475 -1.033977,-0.5512 z m 0,-5.20161 0,-0.87985 c 0,-0.30364 0.464238,-0.55109 1.033977,-0.55109 l 3.700549,0 c 0.56974,0 1.033977,0.24745 1.033977,0.55109 l 0,0.87985 c 0,0.30367 -0.464237,0.54143 -1.033977,0.54143 l -3.700549,0 c -0.569739,0 -1.033977,-0.23776 -1.033977,-0.54143 z m 0,-5.21133 0,-0.87982 c 0,-0.30367 0.464238,-0.5511 1.033977,-0.5511 l 3.700549,0 c 0.56974,0 1.033977,0.24743 1.033977,0.5511 l 0,0.87982 c 0,0.30367 -0.464237,0.54143 -1.033977,0.54143 l -3.700549,0 c -0.569739,0 -1.033977,-0.23776 -1.033977,-0.54143 z m 0,-5.2113 0,-0.87983 c 0,-0.30367 0.464238,-0.54144 1.033977,-0.54144 l 3.700549,0 c 0.56974,0 1.033977,0.23777 1.033977,0.54144 l 0,0.87983 c 0,0.30367 -0.464237,0.5511 -1.033977,0.5511 l -3.700549,0 c -0.569739,0 -1.033977,-0.24743 -1.033977,-0.5511 z m 0,-5.21132 0,-0.87983 c 0,-0.30367 0.464238,-0.54143 1.033977,-0.54143 l 3.700549,0 c 0.56974,0 1.033977,0.23776 1.033977,0.54143 l 0,0.87983 c 0,0.30367 -0.464237,0.55111 -1.033977,0.55111 l -3.700549,0 c -0.569739,0 -1.033977,-0.24744 -1.033977,-0.55111 z m 0,-5.21131 0,-0.87016 c 0,-0.30367 0.464238,-0.55111 1.033977,-0.55111 l 3.700549,0 c 0.56974,0 1.033977,0.24744 1.033977,0.55111 l 0,0.87016 c 0,0.30367 -0.464237,0.5511 -1.033977,0.5511 l -3.700549,0 c -0.569739,0 -1.033977,-0.24743 -1.033977,-0.5511 z m 0,-5.20165 0,-0.87983 c 0,-0.30367 0.464238,-0.5511 1.033977,-0.5511 l 3.700549,0 c 0.56974,0 1.033977,0.24743 1.033977,0.5511 l 0,0.87983 c 0,0.30367 -0.464237,0.54144 -1.033977,0.54144 l -3.700549,0 c -0.569739,0 -1.033977,-0.23777 -1.033977,-0.54144 z m 7.618777,37.52342 0,-39.46678 49.358792,0 0,39.46678 -49.358792,0 z m 51.626256,-0.8895 0,-0.8799 c 0,-0.3036 0.446155,-0.551 1.015837,-0.551 l 3.700549,0 c 0.569739,0 1.034004,0.2474 1.034004,0.551 l 0,0.8799 c 0,0.3036 -0.464265,0.5414 -1.034004,0.5414 l -3.700549,0 c -0.569682,0 -1.015837,-0.2378 -1.015837,-0.5414 z m 0,-5.2113 0,-0.8799 c 0,-0.3036 0.446155,-0.5511 1.015837,-0.5511 l 3.700549,0 c 0.569797,0 1.034004,0.2475 1.034004,0.5511 l 0,0.8799 c 0,0.3036 -0.464207,0.5414 -1.034004,0.5414 l -3.700549,0 c -0.569624,0 -1.015837,-0.2378 -1.015837,-0.5414 z m 0,-5.21133 0,-0.87985 c 0,-0.30367 0.446155,-0.55109 1.015837,-0.55109 l 3.700549,0 c 0.569855,0 1.034004,0.24742 1.034004,0.55109 l 0,0.87985 c 0,0.30363 -0.464149,0.55109 -1.034004,0.55109 l -3.700549,0 c -0.569566,0 -1.015837,-0.24746 -1.015837,-0.55109 z m 0,-5.21133 0,-0.87983 c 0,-0.30367 0.446155,-0.54144 1.015837,-0.54144 l 3.700549,0 c 0.569913,0 1.034004,0.23777 1.034004,0.54144 l 0,0.87983 c 0,0.30367 -0.464149,0.55112 -1.034004,0.55112 l -3.700549,0 c -0.569507,0 -1.015837,-0.24745 -1.015837,-0.55112 z m 0,-5.21132 0,-0.87016 c 0,-0.30367 0.446155,-0.5511 1.015837,-0.5511 l 3.700549,0 c 0.569971,0 1.034004,0.24743 1.034004,0.5511 l 0,0.87016 c 0,0.30367 -0.464149,0.55111 -1.034004,0.55111 l -3.700549,0 c -0.569449,0 -1.015837,-0.24744 -1.015837,-0.55111 z m 0,-5.21131 0,-0.87016 c 0,-0.30367 0.446155,-0.55111 1.015837,-0.55111 l 3.700549,0 c 0.569971,0 1.034004,0.24744 1.034004,0.55111 l 0,0.87016 c 0,0.30367 -0.464149,0.5511 -1.034004,0.5511 l -3.700549,0 c -0.569391,0 -1.015837,-0.24743 -1.015837,-0.5511 z m 0,-5.20165 0,-0.87983 c 0,-0.30367 0.446155,-0.5511 1.015837,-0.5511 l 3.700549,0 c 0.569971,0 1.034004,0.24743 1.034004,0.5511 l 0,0.87983 c 0,0.30367 -0.464149,0.54144 -1.034004,0.54144 l -3.700549,0 c -0.569333,0 -1.015837,-0.23777 -1.015837,-0.54144 z m 0,-5.21131 0,-0.87983 c 0,-0.30367 0.446155,-0.55111 1.015837,-0.55111 l 3.700549,0 c 0.569971,0 1.034004,0.24744 1.034004,0.55111 l 0,0.87983 c 0,0.30367 -0.464149,0.5511 -1.034004,0.5511 l -3.700549,0 c -0.569275,0 -1.015837,-0.24743 -1.015837,-0.5511 z"
       id="rect10"
       style="fill:#000000;fill-rule:evenodd;stroke:none" />
  </g>
  <g
     transform="translate(-26.010348,-46.48658)"
     id="layer2"
     style="display:inline">
    <rect
       width="49.922459"
       height="39.989426"
       rx="1.021203"
       ry="0.54943931"
       x="37.297585"
       y="47.390766"
       id="rect2989"
       style="fill:#000000;fill-opacity:1;stroke:#000000;stroke-width:0.42280209;stroke-miterlimit:4;stroke-opacity:1;stroke-dasharray:none" />
    <rect
       width="41.474621"
       height="36.15509"
       rx="0"
       x="46.576347"
       y="972.77557"
       transform="translate(-5.3125,-923.0625)"
       id="rect2987"
       style="fill:#ffffff;fill-opacity:1;stroke:#ffffff;stroke-width:6.9835844;stroke-miterlimit:4;stroke-opacity:1;stroke-dasharray:none" />
  </g>
</svg>
